<svg xmlns="http://www.w3.org/2000/svg" style="display:none">
  <!-- Attachment / paperclip icon -->
  <symbol id="icon-attachment" viewBox="0 0 24 24" fill="none" stroke="currentColor" stroke-width="2" stroke-linecap="round" stroke-linejoin="round">
    <path d="M21.44 11.05l-9.19 9.19a6 6 0 01-8.49-8.49l9.19-9.19a4 4 0 015.66 5.66l-9.2 9.19a2 2 0 01-2.83-2.83l8.49-8.48"/>
  </symbol>
  <!-- Notes / comment icon -->
  <symbol id="icon-notes" viewBox="0 0 24 24" fill="none" stroke="currentColor" stroke-width="2" stroke-linecap="round" stroke-linejoin="round">
    <path d="M21 15a2 2 0 01-2 2H7l-4 4V5a2 2 0 012-2h14a2 2 0 012 2z"/>
  </symbol>
  <!-- Search icon -->
  <symbol id="icon-search" viewBox="0 0 24 24" fill="none" stroke="currentColor" stroke-width="2" stroke-linecap="round" stroke-linejoin="round">
    <circle cx="11" cy="11" r="8"/>
    <line x1="21" y1="21" x2="16.65" y2="16.65"/>
  </symbol>
  <!-- Refresh icon -->
  <symbol id="icon-refresh" viewBox="0 0 24 24" fill="none" stroke="currentColor" stroke-width="2" stroke-linecap="round" stroke-linejoin="round">
    <polyline points="23 4 23 10 17 10"/>
    <path d="M20.49 15a9 9 0 11-2.12-9.36L23 10"/>
  </symbol>
  <!-- Clock icon -->
  <symbol id="icon-clock" viewBox="0 0 24 24" fill="none" stroke="currentColor" stroke-width="2" stroke-linecap="round" stroke-linejoin="round">
    <circle cx="12" cy="12" r="10"/>
    <polyline points="12 6 12 12 16 14"/>
  </symbol>
  <!-- Package / box icon -->
  <symbol id="icon-package" viewBox="0 0 24 24" fill="none" stroke="currentColor" stroke-width="2" stroke-linecap="round" stroke-linejoin="round">
    <line x1="16.5" y1="9.4" x2="7.5" y2="4.21"/>
    <path d="M21 16V8a2 2 0 00-1-1.73l-7-4a2 2 0 00-2 0l-7 4A2 2 0 003 8v8a2 2 0 001 1.73l7 4a2 2 0 002 0l7-4A2 2 0 0021 16z"/>
    <polyline points="3.27 6.96 12 12.01 20.73 6.96"/>
    <line x1="12" y1="22.08" x2="12" y2="12"/>
  </symbol>
  <!-- Check icon -->
  <symbol id="icon-check" viewBox="0 0 24 24" fill="none" stroke="currentColor" stroke-width="2" stroke-linecap="round" stroke-linejoin="round">
    <polyline points="20 6 9 17 4 12"/>
  </symbol>
  <!-- Expand / maximize icon -->
  <symbol id="icon-expand" viewBox="0 0 24 24" fill="none" stroke="currentColor" stroke-width="2" stroke-linecap="round" stroke-linejoin="round">
    <polyline points="15 3 21 3 21 9"/>
    <polyline points="9 21 3 21 3 15"/>
    <line x1="21" y1="3" x2="14" y2="10"/>
    <line x1="3" y1="21" x2="10" y2="14"/>
  </symbol>
  <!-- Collapse / minimize icon -->
  <symbol id="icon-collapse" viewBox="0 0 24 24" fill="none" stroke="currentColor" stroke-width="2" stroke-linecap="round" stroke-linejoin="round">
    <polyline points="4 14 10 14 10 20"/>
    <polyline points="20 10 14 10 14 4"/>
    <line x1="14" y1="10" x2="21" y2="3"/>
    <line x1="3" y1="21" x2="10" y2="14"/>
  </symbol>
</svg>
