<?xml version="1.0" encoding="UTF-8"?>
<svg id="Warstwa_1" xmlns="http://www.w3.org/2000/svg" version="1.1" viewBox="0 0 310 53">
  <!-- Generator: Adobe Illustrator 29.8.1, SVG Export Plug-In . SVG Version: 2.1.1 Build 2)  -->
  <defs>
    <style>
      .st0 {
        fill: #fff;
      }

      .st1 {
        fill: #ed6b24;
      }
    </style>
  </defs>
  <path class="st0" d="M88.7,29.7l-4.4-10.4h-4l-4.2,10.5-3.8-13.7h-7.2l7.5,23.3h5l4.7-11.8,4.6,11.8h5l7.7-23.3h-7.2l-3.8,13.6Z"/>
  <path class="st0" d="M119.6,17.1c-1.8-1-3.9-1.6-6.3-1.6s-4.5.5-6.3,1.6c-1.8,1-3.3,2.5-4.3,4.3-1.1,1.8-1.6,3.9-1.6,6.2s.5,4.4,1.6,6.2c1.1,1.8,2.5,3.2,4.3,4.3,1.8,1,3.9,1.6,6.3,1.6s4.5-.5,6.3-1.6c1.8-1,3.3-2.5,4.3-4.3,1.1-1.8,1.6-3.9,1.6-6.2s-.5-4.4-1.6-6.2c-1.1-1.8-2.5-3.2-4.3-4.3ZM117.9,30.8c-.5.9-1.1,1.6-1.9,2.1-.8.5-1.7.8-2.7.8s-1.9-.3-2.8-.8c-.8-.5-1.4-1.2-1.9-2.1-.5-.9-.7-1.9-.6-3.1,0-1.2.2-2.2.6-3.1.5-.9,1.1-1.7,1.9-2.2.8-.5,1.7-.8,2.8-.8s1.9.3,2.7.8c.8.5,1.4,1.3,1.9,2.2s.7,2,.6,3.1c0,1.2-.2,2.2-.6,3.1Z"/>
  <path class="st0" d="M146.9,17.1c-1.8-1-3.9-1.6-6.3-1.6s-4.5.5-6.3,1.6c-1.8,1-3.3,2.5-4.3,4.3-1.1,1.8-1.6,3.9-1.6,6.2s.5,4.4,1.6,6.2c1.1,1.8,2.5,3.2,4.3,4.3,1.8,1,3.9,1.6,6.3,1.6s4.5-.5,6.3-1.6c1.8-1,3.3-2.5,4.3-4.3,1.1-1.8,1.6-3.9,1.6-6.2s-.5-4.4-1.6-6.2c-1.1-1.8-2.5-3.2-4.3-4.3ZM145.2,30.8c-.5.9-1.1,1.6-1.9,2.1-.8.5-1.7.8-2.7.8s-1.9-.3-2.8-.8c-.8-.5-1.4-1.2-1.9-2.1-.5-.9-.7-1.9-.6-3.1,0-1.2.2-2.2.6-3.1.5-.9,1.1-1.7,1.9-2.2.8-.5,1.7-.8,2.8-.8s1.9.3,2.7.8c.8.5,1.4,1.3,1.9,2.2.5.9.7,2,.6,3.1,0,1.2-.2,2.2-.6,3.1Z"/>
  <path class="st0" d="M172.6,18.3c-.3-.3-.7-.7-1.1-1-.8-.6-1.6-1-2.6-1.3-.9-.3-1.9-.5-2.9-.5-2,0-3.8.5-5.3,1.6-1.5,1-2.7,2.5-3.6,4.3-.9,1.8-1.3,3.9-1.3,6.3s.4,4.4,1.3,6.3c.9,1.8,2.1,3.2,3.6,4.3,1.5,1,3.3,1.6,5.2,1.6s2.1-.2,3-.5c1-.3,1.8-.7,2.5-1.2.6-.4,1.1-.9,1.5-1.4l.2,2.6h6.4V6.9h-6.9v11.5h0ZM172.1,31c-.4.9-1,1.7-1.8,2.2-.8.5-1.7.8-2.7.8s-2-.3-2.7-.8c-.8-.5-1.4-1.3-1.8-2.2-.4-.9-.6-2-.6-3.3s.2-2.4.6-3.3c.4-.9,1-1.7,1.8-2.2.8-.5,1.7-.8,2.7-.8s2,.3,2.7.8c.8.5,1.4,1.3,1.8,2.2.4.9.6,2.1.6,3.3s-.2,2.4-.6,3.3Z"/>
  <path class="st0" d="M202.3,17.4c-1.6-1-3.3-1.5-5.4-1.5s-2.4.2-3.6.8c-1.1.5-2.1,1.2-2.9,2-.3.3-.6.6-.8.9v-3.3h-4.4v32.7h4.4v-12.7c.1.2.3.3.5.5.9.9,1.9,1.5,3.1,2.1,1.2.5,2.5.8,3.8.8,2,0,3.7-.5,5.3-1.6,1.6-1,2.8-2.5,3.7-4.3.9-1.8,1.3-3.8,1.3-6.1s-.5-4.4-1.4-6.1c-.9-1.8-2.1-3.2-3.7-4.2h0ZM202.3,31.8c-.6,1.2-1.4,2.1-2.4,2.8-1,.7-2.2,1-3.5,1s-2.5-.3-3.6-1c-1-.7-1.8-1.6-2.4-2.8-.6-1.2-.9-2.5-.9-4s.3-2.8.9-4c.6-1.2,1.4-2.1,2.4-2.7,1-.7,2.2-1,3.6-1s2.5.3,3.6,1c1,.7,1.8,1.6,2.4,2.7s.9,2.5.9,4-.3,2.8-.9,4h0Z"/>
  <path class="st0" d="M228,17.4c-1.7-1-3.7-1.6-5.8-1.6s-4.1.5-5.9,1.6c-1.7,1-3.1,2.5-4.1,4.3-1,1.8-1.5,3.9-1.5,6.2s.5,4.4,1.5,6.2c1,1.8,2.3,3.2,4.1,4.3,1.7,1,3.7,1.6,5.9,1.6s4.1-.5,5.8-1.6c1.7-1,3.1-2.5,4.1-4.3,1-1.8,1.5-3.9,1.5-6.2s-.5-4.4-1.5-6.2c-1-1.8-2.3-3.2-4.1-4.3ZM228.3,31.8c-.6,1.2-1.4,2.1-2.5,2.8-1.1.7-2.3,1-3.6,1s-2.5-.3-3.6-1c-1.1-.7-1.9-1.6-2.5-2.8-.6-1.2-.9-2.5-.9-4,0-1.5.3-2.8.9-4,.6-1.2,1.4-2.1,2.5-2.8,1.1-.7,2.3-1,3.6-1s2.5.3,3.6,1,1.9,1.6,2.5,2.8c.6,1.2.9,2.5.9,4,0,1.5-.3,2.8-.9,4h0Z"/>
  <path class="st0" d="M258.2,32l-5.3-12h-2.6l-5.4,12.2-5-15.9h-4.4c0,0,7.6,23.1,7.6,23.1h3l5.3-13.4,5.7,13.4h3l7.5-23h-4.4l-5,15.7Z"/>
  <path class="st0" d="M288.4,19c-.9-1-2-1.8-3.3-2.3-1.3-.6-2.6-.9-4-.9s-3.2.3-4.6.9c-1.4.6-2.6,1.4-3.6,2.5-1,1.1-1.8,2.4-2.4,3.9-.6,1.5-.9,3.1-.9,5s.5,4.3,1.5,6c1,1.7,2.4,3.1,4.2,4.1,1.8,1,3.8,1.5,6.1,1.5s2.1-.2,3.2-.5c1.1-.3,2.1-.7,3.1-1.3,1-.5,1.8-1.1,2.5-1.8l-2.2-3.2c-1.1,1-2.1,1.7-3.1,2.1-1,.4-2,.6-3.1.6-1.6,0-2.9-.3-4.1-1s-2.1-1.6-2.8-2.7c-.5-.9-.8-1.9-.9-3h17.1v-1.9c0-1.6-.2-3.1-.7-4.4-.5-1.3-1.2-2.5-2.1-3.5ZM277.2,20.8c1.1-.6,2.3-.9,3.9-.9s1.9.2,2.7.7c.8.4,1.5,1,2.1,1.8.5.8.9,1.6.9,2.6v.3h-12.5c.1-.7.3-1.3.6-1.8.5-1.2,1.3-2,2.4-2.6h0Z"/>
  <path class="st0" d="M308.7,15.9c-.4,0-.9-.1-1.4-.1-1.1,0-2.1.3-3.1.8-1,.5-1.8,1.2-2.6,2.1-.5.6-.9,1.3-1.2,2v-4.4h-4.4v23h4.4v-12.7c0-.9.1-1.6.5-2.3.3-.7.7-1.3,1.3-1.9s1.1-1,1.8-1.3c.7-.3,1.4-.5,2.2-.5s.8,0,1.2.2c.4,0,.8.2,1.1.4l1.1-4.9c-.3-.1-.6-.2-1.1-.3h0Z"/>
  <path class="st1" d="M49.4,13.6L37.9,1.8C36.8.7,35.3,0,33.7,0H6C2.7,0,0,2.8,0,6.2v28.4c0,1.7.6,3.2,1.8,4.4l11.4,11.8c1.1,1.2,2.7,1.8,4.3,1.8h27.6c3.3,0,6-2.8,6-6.2v-28.4c0-1.7-.6-3.2-1.8-4.4h0ZM33.7,2.8c.9,0,1.7.4,2.3,1l10.4,10.7h-7.5L27.5,2.8h6.1ZM23.6,2.8l11.4,11.7h-7.5L16.1,2.8h7.5ZM27.7,17.4h6.9c-7.7,3.7-14,10.1-17.6,18.1v-6.9c2.3-4.3,6.3-8.5,10.7-11.2h0ZM17,23.5v-4.5c0-.8.6-1.5,1.4-1.5h4.4c-2.2,1.8-4.2,3.8-5.8,6h0ZM14.2,47.7l-10.4-10.7c-.6-.6-1-1.5-1-2.4v-6.3l11.4,11.7v7.7ZM14.2,36L2.8,24.3v-7.7l11.4,11.7v7.7ZM14.2,18.9v5.4L2.8,12.6v-6.3c0-.4,0-.8.2-1.1l11.6,11.9c-.3.6-.4,1.2-.4,1.9h0ZM4.9,3.1c.4-.1.7-.2,1.1-.2h6.1l11.4,11.7h-5.2c-.7,0-1.3.2-1.8.4L4.9,3.1ZM17,48v-2.3c0-.8,0-1.7.3-2.5,2.8-12.5,12.5-22.5,24.7-25.6,1-.2,2-.3,3-.3h1.8c.9,0,1.7.8,1.7,1.7v3.8c-14.3.7-26.1,12.1-27.6,26.7h-2.2c-.9,0-1.6-.8-1.6-1.7h0ZM36.8,49.7h-5.6c2.6-7.6,9.3-12.9,17.2-13.4v7c-4.7.4-9,2.8-11.6,6.4h0ZM28.3,49.7h-4.7c1.5-13.1,12-23.2,24.8-23.9v7.6c-9.4.6-17.3,7.1-20.1,16.3h0ZM45.1,49.7h-4.6c2.1-2,4.9-3.3,7.9-3.6v.2c0,1.9-1.5,3.4-3.3,3.4h0Z"/>
</svg>